<mxfile host="app.diagrams.net" modified="2024-03-31T19:42:43.408Z" agent="Mozilla/5.0 (Windows NT 10.0; Win64; x64) AppleWebKit/537.36 (KHTML, like Gecko) Chrome/123.0.0.0 Safari/537.36" etag="cDHE99PRu_Qm_8d_8g1z" version="24.0.1" type="device">
  <diagram name="Strona-1" id="OGV7iL7pSiNMXufX4GtI">
    <mxGraphModel dx="1235" dy="655" grid="1" gridSize="10" guides="1" tooltips="1" connect="1" arrows="1" fold="1" page="1" pageScale="1" pageWidth="827" pageHeight="1169" math="0" shadow="0">
      <root>
        <mxCell id="0" />
        <mxCell id="1" parent="0" />
        <mxCell id="hQ11BM0smZsaGoY3M_z_-1" value="Streamlit UI" style="rounded=0;whiteSpace=wrap;html=1;" vertex="1" parent="1">
          <mxGeometry x="354" y="80" width="120" height="60" as="geometry" />
        </mxCell>
        <mxCell id="hQ11BM0smZsaGoY3M_z_-2" value="" style="shape=image;verticalLabelPosition=bottom;labelBackgroundColor=default;verticalAlign=top;aspect=fixed;imageAspect=0;image=https://streamlit.io/images/brand/streamlit-logo-primary-colormark-darktext.png;" vertex="1" parent="1">
          <mxGeometry x="352" y="7.46" width="124" height="72.54" as="geometry" />
        </mxCell>
        <mxCell id="hQ11BM0smZsaGoY3M_z_-5" value="" style="rounded=0;whiteSpace=wrap;html=1;" vertex="1" parent="1">
          <mxGeometry x="354" y="220" width="120" height="60" as="geometry" />
        </mxCell>
        <mxCell id="hQ11BM0smZsaGoY3M_z_-3" value="" style="shape=image;verticalLabelPosition=bottom;labelBackgroundColor=default;verticalAlign=top;aspect=fixed;imageAspect=0;image=https://fastapi.tiangolo.com/img/logo-margin/logo-teal.png;" vertex="1" parent="1">
          <mxGeometry x="350" y="227.02999999999997" width="127.5" height="45.94" as="geometry" />
        </mxCell>
        <mxCell id="hQ11BM0smZsaGoY3M_z_-9" value="X api" style="rounded=0;whiteSpace=wrap;html=1;" vertex="1" parent="1">
          <mxGeometry x="150" y="220" width="120" height="60" as="geometry" />
        </mxCell>
        <mxCell id="hQ11BM0smZsaGoY3M_z_-10" value="Local Model" style="rounded=0;whiteSpace=wrap;html=1;" vertex="1" parent="1">
          <mxGeometry x="550" y="220" width="120" height="60" as="geometry" />
        </mxCell>
        <mxCell id="hQ11BM0smZsaGoY3M_z_-11" value="" style="shape=image;verticalLabelPosition=bottom;labelBackgroundColor=default;verticalAlign=top;aspect=fixed;imageAspect=0;image=https://huggingface.co/datasets/huggingface/brand-assets/resolve/main/hf-logo-with-title.png;" vertex="1" parent="1">
          <mxGeometry x="515" y="160" width="190" height="50.51" as="geometry" />
        </mxCell>
        <mxCell id="hQ11BM0smZsaGoY3M_z_-12" value="Database" style="shape=cylinder3;whiteSpace=wrap;html=1;boundedLbl=1;backgroundOutline=1;size=15;" vertex="1" parent="1">
          <mxGeometry x="384" y="370" width="60" height="80" as="geometry" />
        </mxCell>
        <mxCell id="hQ11BM0smZsaGoY3M_z_-13" value="" style="shape=flexArrow;endArrow=classic;startArrow=classic;html=1;rounded=0;exitX=1;exitY=0.5;exitDx=0;exitDy=0;" edge="1" parent="1" source="hQ11BM0smZsaGoY3M_z_-9" target="hQ11BM0smZsaGoY3M_z_-3">
          <mxGeometry width="100" height="100" relative="1" as="geometry">
            <mxPoint x="360" y="250" as="sourcePoint" />
            <mxPoint x="460" y="150" as="targetPoint" />
          </mxGeometry>
        </mxCell>
        <mxCell id="hQ11BM0smZsaGoY3M_z_-14" value="" style="shape=flexArrow;endArrow=classic;startArrow=classic;html=1;rounded=0;entryX=0.5;entryY=1;entryDx=0;entryDy=0;" edge="1" parent="1" target="hQ11BM0smZsaGoY3M_z_-1">
          <mxGeometry width="100" height="100" relative="1" as="geometry">
            <mxPoint x="414" y="220" as="sourcePoint" />
            <mxPoint x="460" y="150" as="targetPoint" />
          </mxGeometry>
        </mxCell>
        <mxCell id="hQ11BM0smZsaGoY3M_z_-15" value="" style="shape=flexArrow;endArrow=classic;startArrow=classic;html=1;rounded=0;entryX=0;entryY=0.5;entryDx=0;entryDy=0;exitX=0.986;exitY=0.504;exitDx=0;exitDy=0;exitPerimeter=0;" edge="1" parent="1" source="hQ11BM0smZsaGoY3M_z_-3" target="hQ11BM0smZsaGoY3M_z_-10">
          <mxGeometry width="100" height="100" relative="1" as="geometry">
            <mxPoint x="480" y="250" as="sourcePoint" />
            <mxPoint x="460" y="150" as="targetPoint" />
          </mxGeometry>
        </mxCell>
        <mxCell id="hQ11BM0smZsaGoY3M_z_-16" value="" style="shape=flexArrow;endArrow=classic;startArrow=classic;html=1;rounded=0;exitX=0.5;exitY=0;exitDx=0;exitDy=0;exitPerimeter=0;entryX=0.5;entryY=1;entryDx=0;entryDy=0;" edge="1" parent="1" source="hQ11BM0smZsaGoY3M_z_-12" target="hQ11BM0smZsaGoY3M_z_-5">
          <mxGeometry width="100" height="100" relative="1" as="geometry">
            <mxPoint x="360" y="300" as="sourcePoint" />
            <mxPoint x="460" y="200" as="targetPoint" />
          </mxGeometry>
        </mxCell>
      </root>
    </mxGraphModel>
  </diagram>
</mxfile>
